<svg xmlns="http://www.w3.org/2000/svg" width="1984.25pt" height="744.09pt" viewBox="0 0 1984.25 744.09"><defs><clipPath id="a"><path d="M1684 443h300.25v301.09H1684Zm0 0"/></clipPath><clipPath id="b"><path d="M1912 24h72.25v401H1912Zm0 0"/></clipPath></defs><path d="M254.688 333.219c-44.958 0-81.391-36.438-81.391-81.387 0-44.969 36.433-81.39 81.39-81.39 44.926 0 81.372 36.421 81.372 81.39 0 44.95-36.446 81.387-81.372 81.387m-.042-229.989c-82.887 0-150.102 67.211-150.102 150.114 0 82.93 67.215 150.14 150.102 150.14 82.93 0 150.144-67.21 150.144-150.14 0-82.903-67.215-150.114-150.144-150.114" style="stroke:none;fill-rule:nonzero;fill:#e3243d;fill-opacity:1"/><g clip-path="url(#a)"><path d="M1834.18 443.848c-82.899 0-150.168 67.199-150.168 150.117 0 82.898 67.27 150.125 150.168 150.125 82.91 0 150.07-67.227 150.07-150.125 0-82.918-67.16-150.117-150.07-150.117" style="stroke:none;fill-rule:nonzero;fill:#e3243d;fill-opacity:1"/></g><g clip-path="url(#b)"><path d="M1958.84 24.277h-46.57v400.371h71.98V49.457c-.441-13.82-11.578-24.879-25.41-25.18" style="stroke:none;fill-rule:nonzero;fill:#5b5c5e;fill-opacity:1"/></g><path d="M1647.898 116.152h90.024V302.27h-90.024Zm-128.757 0h58.39V302.27h-58.39v59.12h349.43v-59.12h-58.993V116.152h58.992V57.027h-349.43M1344.3 345.93c0-14.368-11.671-26.051-26.05-26.051-.148 0-.262.023-.398.047v-.047h-47.614V447.57h-90.91V345.93c0-14.368-11.656-26.051-26.047-26.051-.12 0-.27.023-.41.047v-.047h-47.61V447.57h-137.28v59.086h508.8V447.57h-132.48" style="stroke:none;fill-rule:nonzero;fill:#5b5c5e;fill-opacity:1"/><path d="M1222.66 146.2c35.149 76.87 135.5 149.066 198.34 174.952l29.34-61.332c-61.14-25.605-164.461-98.152-197.32-213.078h-60.711c-32.868 114.926-136.168 187.473-197.32 213.078l29.35 61.332c62.821-25.886 163.192-98.082 198.321-174.953M702.2 446.277c-48.173 0-79.333-27.285-79.333-71.75 0-37.882 33.86-63.648 51.953-75.308l94.617 121.207c-19.027 19.543-40.417 25.851-67.238 25.851m51.387-292.793c.5 29.957-22.602 46.11-57.496 69.133-18.567-23.953-38.485-41.312-39.168-65.883-1.902-67.988 95.574-69.472 96.664-3.25M904.82 321.027h-64.758c-3.914 17.5-11.261 39.145-23.566 53.094L735.652 271.09c53.16-30.985 84.422-74.543 82.082-124.059-2.773-58.62-52.261-100.32-113.039-100.32-80.843 0-117.554 59.004-113.785 115.246 1.86 27.68 21.574 57.16 45.278 89.055-54.786 32.879-79.852 77.062-79.852 129.87 0 62.364 42.715 129.477 136.527 129.477 43.965 0 83.528-10.867 116.532-39.789l26.394 34.864h82.883l-64.055-79.758c20.735-22.738 44.766-71.332 50.203-104.649M292.352 441.18c0-14.364-11.664-26.032-26.04-26.032h-49.316v32.422h-217v59.137H509.34V447.57H292.352M429.297 36.2H290.484V26.034C290.484 11.688 278.816 0 264.454 0h-45.602v36.2H80.055v55.366h349.242M139.887 590.684H371.23v84.812H139.887ZM69.52 670.887c0 34.18 27.718 61.898 61.898 61.898h308.398v-199.25l-370.296-.152" style="stroke:none;fill-rule:nonzero;fill:#5b5c5e;fill-opacity:1"/></svg>